General
Complete name                    :Das Leben der Anderen.mkv
Format                           : Matroska
File size                        : 2.06 GiB
Duration                         : 2h 12mn
Overall bit rate                 : 2 231 Kbps


Video
ID                               : 1
Format                           : AVC

Duration                         : 2h 12mn
Bit rate                         : 1 737 Kbps
Nominal bit rate                 : 1 772 Kbps
Width                            : 720 pixels
Height                           : 576 pixels
Display aspect ratio             : 16/9
Frame rate                       : 25.000 fps
Standard                         : PAL
Resolution                       : 24 bits
Colorimetry                      : 4:2:0
Scan type                        : Progressive
Bits/(Pixel*Frame)               : 0.168
Stream size                      : 1.60 GiB (78%)
Writing library                  : x264 core 79

Audio
ID                               : 2
Format                           : AC-3
Format/Info                      : Audio Coding 3
Codec ID                         : A_AC3
Duration                         : 2h 12mn
Bit rate mode                    : Constant
Bit rate                         : 448 Kbps
Channel(s)                       : 6 channels
Channel positions                : Front: L C R, Surround: L R, LFE
Sampling rate                    : 48.0 KHz
Stream size                      : 423 MiB (20%)
Language                         : English

Text #1
Language                         : Swedish

Text #2
Language                         : English
